<svg width="80" height="80" viewBox="0 0 80 80" fill="none" xmlns="http://www.w3.org/2000/svg">
<path d="M65.6 1.59998H14.4C10.88 1.59998 8 4.47998 8 7.99998V72C8 75.52 10.88 78.4 14.4 78.4H65.6C69.12 78.4 72 75.52 72 72V7.99998C72 4.47998 69.12 1.59998 65.6 1.59998ZM27.2 65.6C27.2 67.36 25.76 68.8 24 68.8H17.6C15.84 68.8 14.4 67.36 14.4 65.6V64C14.4 62.24 15.84 60.8 17.6 60.8H24C25.76 60.8 27.2 62.24 27.2 64V65.6ZM27.2 52.8C27.2 54.56 25.76 56 24 56H17.6C15.84 56 14.4 54.56 14.4 52.8V51.2C14.4 49.44 15.84 48 17.6 48H24C25.76 48 27.2 49.44 27.2 51.2V52.8ZM27.2 40C27.2 41.76 25.76 43.2 24 43.2H17.6C15.84 43.2 14.4 41.76 14.4 40V38.4C14.4 36.64 15.84 35.2 17.6 35.2H24C25.76 35.2 27.2 36.64 27.2 38.4V40ZM46.4 65.6C46.4 67.36 44.96 68.8 43.2 68.8H36.8C35.04 68.8 33.6 67.36 33.6 65.6V64C33.6 62.24 35.04 60.8 36.8 60.8H43.2C44.96 60.8 46.4 62.24 46.4 64V65.6ZM46.4 52.8C46.4 54.56 44.96 56 43.2 56H36.8C35.04 56 33.6 54.56 33.6 52.8V51.2C33.6 49.44 35.04 48 36.8 48H43.2C44.96 48 46.4 49.44 46.4 51.2V52.8ZM46.4 40C46.4 41.76 44.96 43.2 43.2 43.2H36.8C35.04 43.2 33.6 41.76 33.6 40V38.4C33.6 36.64 35.04 35.2 36.8 35.2H43.2C44.96 35.2 46.4 36.64 46.4 38.4V40ZM65.6 65.6C65.6 67.36 64.16 68.8 62.4 68.8H56C54.24 68.8 52.8 67.36 52.8 65.6V64C52.8 62.24 54.24 60.8 56 60.8H62.4C64.16 60.8 65.6 62.24 65.6 64V65.6ZM65.6 52.8C65.6 54.56 64.16 56 62.4 56H56C54.24 56 52.8 54.56 52.8 52.8V51.2C52.8 49.44 54.24 48 56 48H62.4C64.16 48 65.6 49.44 65.6 51.2V52.8ZM65.6 40C65.6 41.76 64.16 43.2 62.4 43.2H56C54.24 43.2 52.8 41.76 52.8 40V38.4C52.8 36.64 54.24 35.2 56 35.2H62.4C64.16 35.2 65.6 36.64 65.6 38.4V40ZM65.6 25.6C65.6 27.36 64.16 28.8 62.4 28.8H17.6C15.84 28.8 14.4 27.36 14.4 25.6V12.8C14.4 11.04 15.84 9.59998 17.6 9.59998H62.4C64.16 9.59998 65.6 11.04 65.6 12.8V25.6Z" fill="#FFFFFF"/>
</svg>
