<svg width="80" height="80" viewBox="0 0 80 80" fill="none" xmlns="http://www.w3.org/2000/svg">
<g clip-path="url(#clip0_123_23)">
<path d="M71.6667 30V63.3333M18.3333 30V63.3333M8.33333 30V63.3333M61.6667 30V63.3333M6.66667 70H73.3333M0 78.3333H80M40 36.6666H36.6667C35.7826 36.6666 34.9348 37.0178 34.3096 37.6429C33.6845 38.2681 33.3333 39.1159 33.3333 40V41.25C33.3333 41.9712 33.5673 42.673 34 43.25C34.4327 43.8269 35.0409 44.248 35.7333 44.45L44.2667 46.94C44.959 47.1419 45.5673 47.563 46 48.14C46.4327 48.7169 46.6667 49.4187 46.6667 50.14V53.3333C46.6667 54.2173 46.3155 55.0652 45.6904 55.6903C45.0652 56.3154 44.2174 56.6666 43.3333 56.6666H40M40 36.6666H43.3333C44.2174 36.6666 45.0652 37.0178 45.6904 37.6429C46.3155 38.2681 46.6667 39.1159 46.6667 40V41.6666M40 36.6666V30M40 56.6666H36.6667C35.7826 56.6666 34.9348 56.3154 34.3096 55.6903C33.6845 55.0652 33.3333 54.2173 33.3333 53.3333V51.6666M40 56.6666V63.3333M78.3333 20.8333V23.3333H1.66667V20.8333C18.3333 15 28.3333 9.99996 39.1667 1.66663H40.8333C51.6667 9.99996 61.6667 15 78.3333 20.8333Z" stroke="#FFFFFF" stroke-width="3.33333"/>
</g>
<defs>
<clipPath id="clip0_123_23">
<rect width="80" height="80" fill="white"/>
</clipPath>
</defs>
</svg>
