<svg width="80" height="80" viewBox="0 0 80 80" fill="none" xmlns="http://www.w3.org/2000/svg">
<path d="M20 73.3333H70V66.6666H20.04C18.5 66.6266 16.6667 66.0166 16.6667 63.3333C16.6667 60.65 18.5 60.04 20.04 60H70V13.3333C70 9.65663 67.01 6.66663 63.3333 6.66663H20C15.98 6.66663 10 9.32996 10 16.6666V63.3333C10 70.67 15.98 73.3333 20 73.3333ZM16.6667 26.6666V16.6666C16.6667 13.9833 18.5 13.3733 20 13.3333H63.3333V53.3333H16.6667V26.6666Z" fill="#FFFFFF"/>
<path d="M26.6667 20H56.6667V26.6667H26.6667V20Z" fill="#FFFFFF"/>
</svg>
