<svg width="80" height="80" viewBox="0 0 80 80" fill="none" xmlns="http://www.w3.org/2000/svg">
<path d="M66.6667 45.8333C66.6667 45.1703 66.4033 44.5344 65.9344 44.0655C65.4656 43.5967 64.8297 43.3333 64.1667 43.3333H54.1667C53.5036 43.3333 52.8678 43.5967 52.3989 44.0655C51.9301 44.5344 51.6667 45.1703 51.6667 45.8333V68.3333H46.6667V14.1666C46.6667 11.74 46.66 10.1666 46.5067 9.01329C46.36 7.92996 46.1233 7.58996 45.9333 7.39996C45.7433 7.20996 45.4033 6.97329 44.32 6.82663C43.1633 6.67329 41.5933 6.66663 39.1667 6.66663C36.74 6.66663 35.1667 6.67329 34.0133 6.82663C32.93 6.97329 32.59 7.20996 32.4 7.39996C32.21 7.58996 31.9733 7.92996 31.8267 9.01329C31.6733 10.17 31.6667 11.74 31.6667 14.1666V68.3333H26.6667V29.1666C26.6667 28.5036 26.4033 27.8677 25.9344 27.3989C25.4656 26.93 24.8297 26.6666 24.1667 26.6666H14.1667C13.5036 26.6666 12.8678 26.93 12.3989 27.3989C11.9301 27.8677 11.6667 28.5036 11.6667 29.1666V68.3333H5.83334C5.1703 68.3333 4.53442 68.5967 4.06558 69.0655C3.59674 69.5344 3.33334 70.1702 3.33334 70.8333C3.33334 71.4963 3.59674 72.1322 4.06558 72.6011C4.53442 73.0699 5.1703 73.3333 5.83334 73.3333H72.5C73.163 73.3333 73.7989 73.0699 74.2678 72.6011C74.7366 72.1322 75 71.4963 75 70.8333C75 70.1702 74.7366 69.5344 74.2678 69.0655C73.7989 68.5967 73.163 68.3333 72.5 68.3333H66.6667V45.8333Z" fill="#FFFFFF"/>
</svg>
