<svg width="80" height="80" viewBox="0 0 80 80" fill="none" xmlns="http://www.w3.org/2000/svg">
<path d="M72.3667 29.0333C76.5333 24.8666 74.6333 20 72.3667 17.6333L62.3667 7.6333C58.1667 3.46663 53.3333 5.36663 50.9667 7.6333L45.3 13.3333H36.6667C30.3333 13.3333 26.6667 16.6666 24.8 20.5L10 35.3V48.6333L7.63333 50.9666C3.46666 55.1666 5.36666 60 7.63333 62.3666L17.6333 72.3666C19.4333 74.1666 21.3667 74.8333 23.2 74.8333C25.5667 74.8333 27.7333 73.6666 29.0333 72.3666L38.0333 63.3333H50C55.6667 63.3333 58.5333 59.8 59.5667 56.3333C63.3333 55.3333 65.4 52.4666 66.2333 49.6666C71.4 48.3333 73.3333 43.4333 73.3333 40V30H71.3667L72.3667 29.0333ZM66.6667 40C66.6667 41.5 66.0333 43.3333 63.3333 43.3333H60V46.6666C60 48.1666 59.3667 50 56.6667 50H53.3333V53.3333C53.3333 54.8333 52.7 56.6666 50 56.6666H35.3L24.3667 67.6C23.3333 68.5666 22.7333 68 22.3667 67.6333L12.4 57.7C11.4333 56.6666 12 56.0666 12.3667 55.7L16.6667 51.3666V38.0333L23.3333 31.3666V36.6666C23.3333 40.7 26 46.6666 33.3333 46.6666C40.6667 46.6666 43.3333 40.7 43.3333 36.6666H66.6667V40ZM67.6333 24.3L61.9667 30H36.6667V36.6666C36.6667 38.1666 36.0333 40 33.3333 40C30.6333 40 30 38.1666 30 36.6666V26.6666C30 25.1333 30.5667 20 36.6667 20H48.0333L55.6333 12.4C56.6667 11.4333 57.2667 12 57.6333 12.3666L67.6 22.3C68.5667 23.3333 68 23.9333 67.6333 24.3Z" fill="#FFFFFF"/>
</svg>
