<svg width="80" height="80" viewBox="0 0 80 80" fill="none" xmlns="http://www.w3.org/2000/svg">
<path d="M46.7031 3.79846C44.375 3.84534 42.7031 4.29846 41.5937 5.11096L26.3906 13.2516L17.9375 24.75C16.1562 27.5 17.4219 32.8125 22.9844 29.4063L29.0781 21.375C36.8125 14.7047 52.5937 17.7656 45.1094 31.1563C41.4375 38.9063 43.1562 42.6875 47.8906 44.2813L50.0469 37.0313C53.7812 28.625 60.75 27.1094 60.4687 20.3282L77.2188 21.5313L77.0625 4.01721L46.7031 3.79846ZM38.25 19.9531C35.5312 19.9063 32.8594 21.0313 30.9219 22.6563L24.8125 30.6875C26.4844 32.0156 28.1719 31.2969 29.8437 29.6875C31.8125 30.6875 33.3437 29.1406 34.5937 26.0469C35.1094 23.9375 35.875 22.4531 38.25 19.9531ZM25.8125 34.9531C25.75 34.9531 25.6719 34.9532 25.6094 34.9688C25.0937 35.0782 24.4844 35.625 24.0781 36.875C23.6562 38.125 23.5625 39.9063 23.9375 41.8125C24.3125 43.7032 25.0937 45.3125 25.9687 46.3125C26.8125 47.2969 27.5937 47.5781 28.1094 47.4688C28.6406 47.375 29.2344 46.8125 29.6406 45.5782C30.0625 44.3282 30.1719 42.5313 29.7969 40.6407C29.4062 38.7344 28.625 37.125 27.7656 36.1407C27.0156 35.2657 26.3281 34.9531 25.8125 34.9531ZM38.7187 51.6406C37.4844 51.6563 35.9375 52.0469 34.4219 52.7813C32.6875 53.6406 31.3281 54.8281 30.5937 55.9219C29.8594 57 29.7969 57.8125 30.0312 58.2969C30.2656 58.7657 30.9531 59.2188 32.2656 59.2813C33.5781 59.3594 35.3437 59 37.0781 58.1407C38.8125 57.2813 40.1719 56.1094 40.9062 55.0157C41.6406 53.9375 41.7031 53.1094 41.4687 52.6406C41.2344 52.1563 40.5469 51.7188 39.2344 51.6563C39.0625 51.6407 38.9062 51.6406 38.7187 51.6406ZM23.4687 66.5782C22.7344 66.5938 22.0625 66.7031 21.4687 66.875C20.1406 67.2656 19.375 67.9688 19.125 68.7969C18.8594 69.6406 19.125 70.6406 20.0156 71.7188C20.9219 72.7813 22.4375 73.7969 24.3125 74.3594C26.1719 74.9219 27.9844 74.9063 29.3281 74.5C30.6719 74.1094 31.4375 73.4063 31.6875 72.5781C31.9375 71.7344 31.6875 70.7344 30.7812 69.6563C29.8906 68.5938 28.375 67.5781 26.5 67.0156C25.4375 66.7031 24.4062 66.5625 23.4687 66.5782Z" fill="#FFFFFF"/>
</svg>
