<svg width="80" height="80" viewBox="0 0 80 80" fill="none" xmlns="http://www.w3.org/2000/svg">
<path d="M13.3333 66.6667C11.5 66.6667 9.93111 66.0145 8.62667 64.71C7.32222 63.4056 6.66889 61.8356 6.66667 60V20C6.66667 18.1667 7.32 16.5978 8.62667 15.2934C9.93333 13.9889 11.5022 13.3356 13.3333 13.3334H33.3333L40 20H66.6667C68.5 20 70.07 20.6534 71.3767 21.96C72.6833 23.2667 73.3356 24.8356 73.3333 26.6667V60C73.3333 61.8334 72.6811 63.4034 71.3767 64.71C70.0722 66.0167 68.5022 66.6689 66.6667 66.6667H13.3333ZM13.3333 60H66.6667V26.6667H37.25L30.5833 20H13.3333V60Z" fill="#FFFFFF"/>
</svg>
