<svg width="80" height="80" viewBox="0 0 80 80" fill="none" xmlns="http://www.w3.org/2000/svg">
<path opacity="0.2" d="M67.5 50L50 67.5V50H67.5Z" fill="#244F75"/>
<path d="M27.5 30C27.5 29.337 27.7634 28.7011 28.2322 28.2322C28.7011 27.7634 29.337 27.5 30 27.5H50C50.663 27.5 51.2989 27.7634 51.7678 28.2322C52.2366 28.7011 52.5 29.337 52.5 30C52.5 30.663 52.2366 31.2989 51.7678 31.7678C51.2989 32.2366 50.663 32.5 50 32.5H30C29.337 32.5 28.7011 32.2366 28.2322 31.7678C27.7634 31.2989 27.5 30.663 27.5 30ZM30 42.5H50C50.663 42.5 51.2989 42.2366 51.7678 41.7678C52.2366 41.2989 52.5 40.663 52.5 40C52.5 39.337 52.2366 38.7011 51.7678 38.2322C51.2989 37.7634 50.663 37.5 50 37.5H30C29.337 37.5 28.7011 37.7634 28.2322 38.2322C27.7634 38.7011 27.5 39.337 27.5 40C27.5 40.663 27.7634 41.2989 28.2322 41.7678C28.7011 42.2366 29.337 42.5 30 42.5ZM40 47.5H30C29.337 47.5 28.7011 47.7634 28.2322 48.2322C27.7634 48.7011 27.5 49.337 27.5 50C27.5 50.663 27.7634 51.2989 28.2322 51.7678C28.7011 52.2366 29.337 52.5 30 52.5H40C40.663 52.5 41.2989 52.2366 41.7678 51.7678C42.2366 51.2989 42.5 50.663 42.5 50C42.5 49.337 42.2366 48.7011 41.7678 48.2322C41.2989 47.7634 40.663 47.5 40 47.5ZM70 15V48.9656C70.0021 49.6225 69.8736 50.2732 69.622 50.8799C69.3704 51.4867 69.0007 52.0374 68.5344 52.5L52.5 68.5344C52.0374 69.0007 51.4867 69.3704 50.8799 69.622C50.2732 69.8736 49.6225 70.0021 48.9656 70H15C13.6739 70 12.4021 69.4732 11.4645 68.5355C10.5268 67.5979 10 66.3261 10 65V15C10 13.6739 10.5268 12.4021 11.4645 11.4645C12.4021 10.5268 13.6739 10 15 10H65C66.3261 10 67.5979 10.5268 68.5355 11.4645C69.4732 12.4021 70 13.6739 70 15ZM15 65H47.5V50C47.5 49.337 47.7634 48.7011 48.2322 48.2322C48.7011 47.7634 49.337 47.5 50 47.5H65V15H15V65ZM52.5 52.5V61.4687L61.4656 52.5H52.5Z" fill="#FFFFFF"/>
</svg>
