<svg width="80" height="80" viewBox="0 0 80 80" fill="none" xmlns="http://www.w3.org/2000/svg">
<path d="M70 49.9999H61.6667C60.3414 50.0026 59.0712 50.5302 58.134 51.4673C57.1969 52.4044 56.6693 53.6746 56.6667 54.9999C56.6693 56.3252 57.1969 57.5954 58.134 58.5325C59.0712 59.4696 60.3414 59.9973 61.6667 59.9999H65C66.3253 60.0026 67.5955 60.5302 68.5326 61.4673C69.4697 62.4044 69.9974 63.6746 70 64.9999C69.9974 66.3252 69.4697 67.5954 68.5326 68.5325C67.5955 69.4696 66.3253 69.9973 65 69.9999H56.6667M63.3333 69.9999V73.3333M63.3333 46.6666V49.9999M43.3333 69.9999H20C18.2319 69.9999 16.5362 69.2975 15.2859 68.0473C14.0357 66.7971 13.3333 65.1014 13.3333 63.3333V29.9999C13.3333 28.2318 14.0357 26.5361 15.2859 25.2859C16.5362 24.0356 18.2319 23.3333 20 23.3333H26.6667M66.6667 33.7333V29.9999C66.6667 28.2318 65.9643 26.5361 64.714 25.2859C63.4638 24.0356 61.7681 23.3333 60 23.3333H53.3333" stroke="#FFFFFF" stroke-width="6.66667" stroke-linecap="round" stroke-linejoin="round"/>
<path d="M53.3333 33.3333V13.3333C53.3333 11.5652 52.6309 9.86949 51.3807 8.61925C50.1305 7.369 48.4348 6.66663 46.6667 6.66663H33.3333C31.5652 6.66663 29.8695 7.369 28.6193 8.61925C27.369 9.86949 26.6667 11.5652 26.6667 13.3333V33.3333M53.3333 33.3333H26.6667M53.3333 33.3333H56.6667M26.6667 33.3333H23.3333M26.6667 46.6666V46.7M26.6667 56.6666V56.7M40 46.6333V46.6666M40 56.6666V56.7" stroke="#FFFFFF" stroke-width="6.66667" stroke-linecap="round" stroke-linejoin="round"/>
</svg>
