<svg width="80" height="80" viewBox="0 0 80 80" fill="none" xmlns="http://www.w3.org/2000/svg">
<path d="M40 23.3333C41.841 23.3333 43.3333 21.8409 43.3333 20C43.3333 18.159 41.841 16.6666 40 16.6666C38.1591 16.6666 36.6667 18.159 36.6667 20C36.6667 21.8409 38.1591 23.3333 40 23.3333Z" fill="#244F75"/>
<path d="M20 56.6666H60V63.3333H20V56.6666ZM33.3333 39.4333L42.64 48.7466L55.7467 35.63L60 40V26.6666H46.6667L51.0333 30.9166L42.6367 39.3133L33.3333 30L20 43.3333L24.7133 48.0466L33.3333 39.4333Z" fill="#244F75"/>
<path d="M63.3333 10H52.34C52.0098 9.50921 51.6538 9.03632 51.2733 8.58336L51.24 8.54336C48.7901 5.69193 45.3448 3.88228 41.6067 3.48336C40.5449 3.28305 39.4551 3.28305 38.3933 3.48336C34.6552 3.88228 31.2099 5.69193 28.76 8.54336L28.7267 8.58336C28.3463 9.03523 27.9903 9.50701 27.66 9.99669V10H16.6667C14.0153 10.0027 11.4733 11.0571 9.59853 12.9319C7.72374 14.8067 6.66932 17.3487 6.66667 20V66.6667C6.66932 69.318 7.72374 71.86 9.59853 73.7348C11.4733 75.6096 14.0153 76.664 16.6667 76.6667H63.3333C65.9847 76.664 68.5267 75.6096 70.4015 73.7348C72.2763 71.86 73.3307 69.318 73.3333 66.6667V20C73.3307 17.3487 72.2763 14.8067 70.4015 12.9319C68.5267 11.0571 65.9847 10.0027 63.3333 10ZM66.6667 66.6667C66.6667 67.5507 66.3155 68.3986 65.6904 69.0237C65.0652 69.6488 64.2174 70 63.3333 70H16.6667C15.7826 70 14.9348 69.6488 14.3096 69.0237C13.6845 68.3986 13.3333 67.5507 13.3333 66.6667V20C13.3333 19.116 13.6845 18.2681 14.3096 17.643C14.9348 17.0179 15.7826 16.6667 16.6667 16.6667H31.8333C32.2159 14.7829 33.2379 13.0892 34.7262 11.8727C36.2146 10.6562 38.0777 9.99167 40 9.99167C41.9223 9.99167 43.7854 10.6562 45.2738 11.8727C46.7621 13.0892 47.7841 14.7829 48.1667 16.6667H63.3333C64.2174 16.6667 65.0652 17.0179 65.6904 17.643C66.3155 18.2681 66.6667 19.116 66.6667 20V66.6667Z" fill="#244F75"/>
</svg>
