<svg width="80" height="80" viewBox="0 0 80 80" fill="none" xmlns="http://www.w3.org/2000/svg">
<g clip-path="url(#clip0_123_6)">
<path d="M33.3333 17.7778H53.3333V22.2223H33.3333V17.7778Z" fill="#FFFFFF"/>
<path d="M33.3333 26.6666H53.3333V31.1111H33.3333V26.6666Z" fill="#FFFFFF"/>
<path d="M33.3333 35.5555H53.3333V40H33.3333V35.5555Z" fill="#FFFFFF"/>
<path d="M33.3333 44.4445H53.3333V48.8889H33.3333V44.4445Z" fill="#FFFFFF"/>
<path d="M33.3333 53.3334H53.3333V57.7778H33.3333V53.3334Z" fill="#FFFFFF"/>
<path d="M24.4444 17.7778H28.8889V22.2223H24.4444V17.7778Z" fill="#FFFFFF"/>
<path d="M24.4444 26.6666H28.8889V31.1111H24.4444V26.6666Z" fill="#FFFFFF"/>
<path d="M24.4444 35.5555H28.8889V40H24.4444V35.5555Z" fill="#FFFFFF"/>
<path d="M24.4444 44.4445H28.8889V48.8889H24.4444V44.4445Z" fill="#FFFFFF"/>
<path d="M24.4444 53.3334H28.8889V57.7778H24.4444V53.3334Z" fill="#FFFFFF"/>
<path d="M62.2222 4.44446H17.7778C16.599 4.44446 15.4686 4.91271 14.6351 5.74621C13.8016 6.5797 13.3333 7.71016 13.3333 8.8889V71.1111C13.3333 72.2899 13.8016 73.4203 14.6351 74.2538C15.4686 75.0873 16.599 75.5556 17.7778 75.5556H62.2222C63.401 75.5556 64.5314 75.0873 65.3649 74.2538C66.1984 73.4203 66.6667 72.2899 66.6667 71.1111V8.8889C66.6667 7.71016 66.1984 6.5797 65.3649 5.74621C64.5314 4.91271 63.401 4.44446 62.2222 4.44446ZM62.2222 71.1111H17.7778V8.8889H62.2222V71.1111Z" fill="#FFFFFF"/>
</g>
<defs>
<clipPath id="clip0_123_6">
<rect width="80" height="80" fill="white"/>
</clipPath>
</defs>
</svg>
