<svg width="80" height="80" viewBox="0 0 80 80" fill="none" xmlns="http://www.w3.org/2000/svg">
<path d="M30.8333 73.3333L29.5 62.6666C28.7778 62.3888 28.0978 62.0555 27.46 61.6666C26.8222 61.2777 26.1967 60.8611 25.5833 60.4166L15.6667 64.5833L6.5 48.75L15.0833 42.25C15.0278 41.8611 15 41.4866 15 41.1266V38.8766C15 38.5144 15.0278 38.1388 15.0833 37.75L6.5 31.25L15.6667 15.4166L25.5833 19.5833C26.1944 19.1388 26.8333 18.7222 27.5 18.3333C28.1667 17.9444 28.8333 17.6111 29.5 17.3333L30.8333 6.66663H49.1667L50.5 17.3333C51.2222 17.6111 51.9033 17.9444 52.5433 18.3333C53.1833 18.7222 53.8078 19.1388 54.4167 19.5833L64.3333 15.4166L73.5 31.25L64.9167 37.75C64.9722 38.1388 65 38.5144 65 38.8766V41.1233C65 41.4855 64.9444 41.8611 64.8333 42.25L73.4167 48.75L64.25 64.5833L54.4167 60.4166C53.8056 60.8611 53.1667 61.2777 52.5 61.6666C51.8333 62.0555 51.1667 62.3888 50.5 62.6666L49.1667 73.3333H30.8333ZM36.6667 66.6666H43.25L44.4167 57.8333C46.1389 57.3888 47.7367 56.7366 49.21 55.8766C50.6833 55.0166 52.03 53.9744 53.25 52.75L61.5 56.1666L64.75 50.5L57.5833 45.0833C57.8611 44.3055 58.0556 43.4866 58.1667 42.6266C58.2778 41.7666 58.3333 40.8911 58.3333 40C58.3333 39.1088 58.2778 38.2344 58.1667 37.3766C58.0556 36.5188 57.8611 35.6988 57.5833 34.9166L64.75 29.5L61.5 23.8333L53.25 27.3333C52.0278 26.0555 50.6811 24.9866 49.21 24.1266C47.7389 23.2666 46.1411 22.6133 44.4167 22.1666L43.3333 13.3333H36.75L35.5833 22.1666C33.8611 22.6111 32.2644 23.2644 30.7933 24.1266C29.3222 24.9888 27.9744 26.03 26.75 27.25L18.5 23.8333L15.25 29.5L22.4167 34.8333C22.1389 35.6666 21.9444 36.5 21.8333 37.3333C21.7222 38.1666 21.6667 39.0555 21.6667 40C21.6667 40.8888 21.7222 41.75 21.8333 42.5833C21.9444 43.4166 22.1389 44.25 22.4167 45.0833L15.25 50.5L18.5 56.1666L26.75 52.6666C27.9722 53.9444 29.32 55.0144 30.7933 55.8766C32.2667 56.7388 33.8633 57.3911 35.5833 57.8333L36.6667 66.6666ZM40.1667 51.6666C43.3889 51.6666 46.1389 50.5277 48.4167 48.25C50.6944 45.9722 51.8333 43.2222 51.8333 40C51.8333 36.7777 50.6944 34.0277 48.4167 31.75C46.1389 29.4722 43.3889 28.3333 40.1667 28.3333C36.8889 28.3333 34.1244 29.4722 31.8733 31.75C29.6222 34.0277 28.4978 36.7777 28.5 40C28.5022 43.2222 29.6278 45.9722 31.8767 48.25C34.1256 50.5277 36.8889 51.6666 40.1667 51.6666Z" fill="#FFFFFF"/>
</svg>
