<svg width="80" height="80" viewBox="0 0 80 80" fill="none" xmlns="http://www.w3.org/2000/svg">
<g clip-path="url(#clip0_121_10)">
<path d="M21.8141 5.54684C21.6399 5.37204 21.4329 5.23335 21.205 5.13871C20.9771 5.04408 20.7327 4.99536 20.4859 4.99536C20.2392 4.99536 19.9948 5.04408 19.7669 5.13871C19.539 5.23335 19.332 5.37204 19.1578 5.54684L9.20782 15.439L5.66094 11.9828C5.48675 11.808 5.27976 11.6693 5.05185 11.5746C4.82395 11.48 4.5796 11.4313 4.33282 11.4313C4.08604 11.4313 3.84169 11.48 3.61379 11.5746C3.38588 11.6693 3.17889 11.808 3.00469 11.9828L0.55157 14.439C0.37677 14.6132 0.238076 14.8202 0.143441 15.0481C0.0488059 15.276 9.15527e-05 15.5204 9.15527e-05 15.7672C9.15527e-05 16.0139 0.0488059 16.2583 0.143441 16.4862C0.238076 16.7141 0.37677 16.9211 0.55157 17.0953L7.98751 24.5015C8.35867 24.8543 8.85119 25.0511 9.36329 25.0511C9.87538 25.0511 10.3679 24.8543 10.7391 24.5015L13.175 22.0609L24.4563 10.7812C24.8078 10.4294 25.0064 9.95326 25.009 9.45598C25.0116 8.9587 24.8181 8.48044 24.4703 8.12496L21.8141 5.54684ZM21.8141 30.4203C21.6399 30.2455 21.4329 30.1068 21.205 30.0121C20.9771 29.9175 20.7327 29.8688 20.4859 29.8688C20.2392 29.8688 19.9948 29.9175 19.7669 30.0121C19.539 30.1068 19.332 30.2455 19.1578 30.4203L9.20782 40.3765L5.66094 36.9234C5.48675 36.7486 5.27976 36.6099 5.05185 36.5153C4.82395 36.4206 4.5796 36.3719 4.33282 36.3719C4.08604 36.3719 3.84169 36.4206 3.61379 36.5153C3.38588 36.6099 3.17889 36.7486 3.00469 36.9234L0.55157 39.375C0.37677 39.5492 0.238076 39.7561 0.143441 39.9841C0.0488059 40.212 9.15527e-05 40.4563 9.15527e-05 40.7031C9.15527e-05 40.9499 0.0488059 41.1942 0.143441 41.4221C0.238076 41.65 0.37677 41.857 0.55157 42.0312L7.96876 49.4531C8.33966 49.8058 8.83192 50.0025 9.34376 50.0025C9.85559 50.0025 10.3479 49.8058 10.7188 49.4531L13.1719 47.0015L24.4531 35.7172C24.8033 35.3678 25.0012 34.8943 25.0039 34.3997C25.0065 33.9051 24.8136 33.4296 24.4672 33.0765L21.8141 30.4203ZM10 57.5C5.86095 57.5 2.40782 60.8593 2.40782 65C2.40782 69.1406 5.86407 72.5 10 72.5C11.9891 72.5 13.8968 71.7098 15.3033 70.3033C16.7098 68.8967 17.5 66.9891 17.5 65C17.5 63.0108 16.7098 61.1032 15.3033 59.6967C13.8968 58.2901 11.9891 57.5 10 57.5ZM77.5 60H32.5C31.837 60 31.2011 60.2634 30.7322 60.7322C30.2634 61.201 30 61.8369 30 62.5V67.5C30 68.163 30.2634 68.7989 30.7322 69.2677C31.2011 69.7366 31.837 70 32.5 70H77.5C78.163 70 78.7989 69.7366 79.2678 69.2677C79.7366 68.7989 80 68.163 80 67.5V62.5C80 61.8369 79.7366 61.201 79.2678 60.7322C78.7989 60.2634 78.163 60 77.5 60ZM77.5 9.99997H32.5C31.837 9.99997 31.2011 10.2634 30.7322 10.7322C30.2634 11.201 30 11.8369 30 12.5V17.5C30 18.163 30.2634 18.7989 30.7322 19.2677C31.2011 19.7366 31.837 20 32.5 20H77.5C78.163 20 78.7989 19.7366 79.2678 19.2677C79.7366 18.7989 80 18.163 80 17.5V12.5C80 11.8369 79.7366 11.201 79.2678 10.7322C78.7989 10.2634 78.163 9.99997 77.5 9.99997ZM77.5 35H32.5C31.837 35 31.2011 35.2634 30.7322 35.7322C30.2634 36.201 30 36.8369 30 37.5V42.5C30 43.163 30.2634 43.7989 30.7322 44.2677C31.2011 44.7366 31.837 45 32.5 45H77.5C78.163 45 78.7989 44.7366 79.2678 44.2677C79.7366 43.7989 80 43.163 80 42.5V37.5C80 36.8369 79.7366 36.201 79.2678 35.7322C78.7989 35.2634 78.163 35 77.5 35Z" fill="#FFFFFF"/>
</g>
<defs>
<clipPath id="clip0_121_10">
<rect width="80" height="80" fill="white"/>
</clipPath>
</defs>
</svg>
