<svg width="100" height="80" viewBox="0 0 100 80" fill="none" xmlns="http://www.w3.org/2000/svg">
<g clip-path="url(#clip0_123_4)">
<path d="M83.5938 6.40626C82.125 4.93751 82.125 2.56251 83.5938 1.10938C85.0625 -0.343742 87.4375 -0.359367 88.8906 1.10938L98.8906 11.1094C99.5938 11.8125 99.9844 12.7656 99.9844 13.7656C99.9844 14.7656 99.5938 15.7188 98.8906 16.4219L88.8906 26.4219C87.4219 27.8906 85.0469 27.8906 83.5938 26.4219C82.1406 24.9531 82.125 22.5781 83.5938 21.125L87.1875 17.5313L60 17.5C57.9219 17.5 56.25 15.8281 56.25 13.75C56.25 11.6719 57.9219 10 60 10H87.2031L83.5938 6.40626ZM16.4062 58.9063L12.8125 62.5H40C42.0781 62.5 43.75 64.1719 43.75 66.25C43.75 68.3281 42.0781 70 40 70H12.7969L16.3906 73.5938C17.8594 75.0625 17.8594 77.4375 16.3906 78.8906C14.9219 80.3438 12.5469 80.3594 11.0938 78.8906L1.09375 68.9063C0.390625 68.2031 0 67.25 0 66.25C0 65.25 0.390625 64.2969 1.09375 63.5938L11.0938 53.5938C12.5625 52.125 14.9375 52.125 16.3906 53.5938C17.8438 55.0625 17.8594 57.4375 16.3906 58.8906L16.4062 58.9063ZM15 10H52.7969C52.2187 11.125 51.875 12.3906 51.875 13.75C51.875 18.2344 55.5156 21.875 60 21.875H78.3437C77.7187 24.5313 78.4375 27.4219 80.5 29.5C83.6719 32.6719 88.8125 32.6719 91.9844 29.5L95 26.4844V60C95 65.5156 90.5156 70 85 70H47.2031C47.7813 68.875 48.125 67.6094 48.125 66.25C48.125 61.7656 44.4844 58.125 40 58.125H21.6563C22.2813 55.4688 21.5625 52.5781 19.5 50.5C16.3281 47.3281 11.1875 47.3281 8.01562 50.5L5 53.5156V20C5 14.4844 9.48438 10 15 10ZM25 20H15V30C20.5156 30 25 25.5156 25 20ZM85 50C79.4844 50 75 54.4844 75 60H85V50ZM50 55C53.9782 55 57.7936 53.4197 60.6066 50.6066C63.4196 47.7936 65 43.9783 65 40C65 36.0218 63.4196 32.2065 60.6066 29.3934C57.7936 26.5804 53.9782 25 50 25C46.0218 25 42.2064 26.5804 39.3934 29.3934C36.5804 32.2065 35 36.0218 35 40C35 43.9783 36.5804 47.7936 39.3934 50.6066C42.2064 53.4197 46.0218 55 50 55Z" fill="#FFFFFF"/>
</g>
<defs>
<clipPath id="clip0_123_4">
<rect width="100" height="80" fill="white"/>
</clipPath>
</defs>
</svg>
