<svg width="80" height="80" viewBox="0 0 80 80" fill="none" xmlns="http://www.w3.org/2000/svg">
<path d="M72.1625 66.25C67.4031 58.0218 60.0688 52.1218 51.5094 49.325C55.7432 46.8045 59.0327 42.964 60.8725 38.3931C62.7124 33.8222 63.001 28.7737 61.6939 24.0229C60.3869 19.2722 57.5565 15.0818 53.6374 12.0953C49.7184 9.10888 44.9273 7.49146 40 7.49146C35.0727 7.49146 30.2817 9.10888 26.3626 12.0953C22.4435 15.0818 19.6131 19.2722 18.3061 24.0229C16.999 28.7737 17.2876 33.8222 19.1275 38.3931C20.9673 42.964 24.2568 46.8045 28.4906 49.325C19.9313 52.1187 12.5969 58.0187 7.83751 66.25C7.66297 66.5345 7.5472 66.8512 7.49703 67.1813C7.44686 67.5113 7.46331 67.8481 7.5454 68.1717C7.62748 68.4953 7.77355 68.7991 7.97498 69.0654C8.17641 69.3316 8.42912 69.5548 8.71821 69.7218C9.00729 69.8888 9.3269 69.9961 9.65816 70.0376C9.98942 70.0791 10.3256 70.0538 10.6469 69.9632C10.9683 69.8726 11.2682 69.7186 11.529 69.5102C11.7899 69.3018 12.0063 69.0433 12.1656 68.75C18.0531 58.575 28.4594 52.5 40 52.5C51.5406 52.5 61.9469 58.575 67.8344 68.75C67.9937 69.0433 68.2102 69.3018 68.471 69.5102C68.7318 69.7186 69.0317 69.8726 69.3531 69.9632C69.6744 70.0538 70.0106 70.0791 70.3419 70.0376C70.6731 69.9961 70.9927 69.8888 71.2818 69.7218C71.5709 69.5548 71.8236 69.3316 72.025 69.0654C72.2265 68.7991 72.3725 68.4953 72.4546 68.1717C72.5367 67.8481 72.5531 67.5113 72.503 67.1813C72.4528 66.8512 72.337 66.5345 72.1625 66.25ZM22.5 30C22.5 26.5388 23.5264 23.1553 25.4493 20.2775C27.3722 17.3996 30.1053 15.1566 33.303 13.8321C36.5008 12.5075 40.0194 12.161 43.4141 12.8362C46.8088 13.5115 49.927 15.1782 52.3744 17.6256C54.8218 20.073 56.4885 23.1912 57.1637 26.5859C57.839 29.9805 57.4924 33.4992 56.1679 36.6969C54.8434 39.8946 52.6003 42.6278 49.7225 44.5507C46.8446 46.4736 43.4612 47.5 40 47.5C35.3602 47.495 30.9119 45.6497 27.6311 42.3688C24.3503 39.088 22.505 34.6397 22.5 30Z" fill="#244F75"/>
</svg>
