<svg width="80" height="80" viewBox="0 0 80 80" fill="none" xmlns="http://www.w3.org/2000/svg">
<path d="M54.5333 46.6666C54.8 44.4666 55 42.2666 55 40C55 37.7333 54.8 35.5333 54.5333 33.3333H65.8C66.3333 35.4666 66.6667 37.7 66.6667 40C66.6667 42.3 66.3333 44.5333 65.8 46.6666M48.6333 65.2C50.6333 61.5 52.1667 57.5 53.2333 53.3333H63.0667C59.8372 58.8942 54.7137 63.1066 48.6333 65.2ZM47.8 46.6666H32.2C31.8667 44.4666 31.6667 42.2666 31.6667 40C31.6667 37.7333 31.8667 35.5 32.2 33.3333H47.8C48.1 35.5 48.3333 37.7333 48.3333 40C48.3333 42.2666 48.1 44.4666 47.8 46.6666ZM40 66.5333C37.2333 62.5333 35 58.1 33.6333 53.3333H46.3667C45 58.1 42.7667 62.5333 40 66.5333ZM26.6667 26.6666H16.9333C20.1288 21.0901 25.2489 16.8708 31.3333 14.8C29.3333 18.5 27.8333 22.5 26.6667 26.6666ZM16.9333 53.3333H26.6667C27.8333 57.5 29.3333 61.5 31.3333 65.2C25.2609 63.1076 20.1476 58.8939 16.9333 53.3333ZM14.2 46.6666C13.6667 44.5333 13.3333 42.3 13.3333 40C13.3333 37.7 13.6667 35.4666 14.2 33.3333H25.4667C25.2 35.5333 25 37.7333 25 40C25 42.2666 25.2 44.4666 25.4667 46.6666M40 13.4333C42.7667 17.4333 45 21.9 46.3667 26.6666H33.6333C35 21.9 37.2333 17.4333 40 13.4333ZM63.0667 26.6666H53.2333C52.1885 22.5387 50.6437 18.5536 48.6333 14.8C54.7667 16.9 59.8667 21.1333 63.0667 26.6666ZM40 6.66663C21.5667 6.66663 6.66666 21.6666 6.66666 40C6.66666 48.8405 10.1786 57.319 16.4298 63.5702C19.525 66.6655 23.1997 69.1208 27.2439 70.7959C31.2881 72.4711 35.6226 73.3333 40 73.3333C48.8405 73.3333 57.319 69.8214 63.5702 63.5702C69.8214 57.319 73.3333 48.8405 73.3333 40C73.3333 35.6226 72.4711 31.288 70.796 27.2438C69.1208 23.1997 66.6655 19.525 63.5702 16.4297C60.4749 13.3344 56.8003 10.8791 52.7561 9.20397C48.7119 7.52882 44.3774 6.66663 40 6.66663Z" fill="#FFFFFF"/>
</svg>
