<svg width="80" height="80" viewBox="0 0 80 80" fill="none" xmlns="http://www.w3.org/2000/svg">
<path d="M53.3333 30C53.3333 47.7666 26.6667 47.7666 26.6667 30H33.3333C33.3333 38.9 46.6667 38.9 46.6667 30M66.6667 60V70H13.3333V60C13.3333 51.1 31.1 46.6666 40 46.6666C48.9 46.6666 66.6667 51.1 66.6667 60ZM60.3333 60C60.3333 57.8666 49.9 53 40 53C30.1 53 19.6667 57.8666 19.6667 60V63.6666H60.3333M41.6667 6.66663C42.6 6.66663 43.3333 7.39996 43.3333 8.33329V18.3333H46.6667V9.99996C49.0257 11.0917 51.0022 12.8673 52.3395 15.0962C53.6769 17.3252 54.3135 19.9047 54.1667 22.5C54.1667 22.5 56.5 22.9666 56.6667 26.6666H23.3333C23.3333 22.9666 25.8333 22.5 25.8333 22.5C25.6865 19.9047 26.3231 17.3252 27.6605 15.0962C28.9979 12.8673 30.9743 11.0917 33.3333 9.99996V18.3333H36.6667V8.33329C36.6667 7.39996 37.4 6.66663 38.3333 6.66663" fill="#FFFFFF"/>
</svg>
